<svg version="1.0" xmlns="http://www.w3.org/2000/svg" width="933.333" height="933.333" viewBox="0 0 700 700"><path d="M327.8.5c-.1.1-4.2.5-8.9.9s-9.5.8-10.5 1c-1 .2-4.1.7-6.9 1-2.7.4-7.6 1.1-10.7 1.7-3.2.5-7 1.2-8.5 1.5-23.4 4.1-59.1 16-83.8 28-18 8.7-44.8 24.7-55.5 33.1-.8.6-5.1 4-9.5 7.4-33.9 26.3-65.1 62.5-87.5 101.4-4.7 8.1-17 32.7-17 33.9 0 .3-1.1 2.9-2.4 5.8-5.1 11.4-12.6 34-16.2 48.8-1 4.1-5.5 25.9-5.9 28.5-1.3 8.7-1.6 11.3-2 14.5-2.7 23.1-2.7 67 0 83.1.2 1.3.6 4.6.9 7.4.9 7.8 2.3 15.6 5.1 28.5 3.1 14.2 10.9 39.1 17.4 55.5 6.4 15.9 25 51.5 29.9 57.1.5.5 1.5 2.1 2.2 3.5 1.4 2.6 13.6 19.3 17.9 24.5 8 9.8 11.1 13.4 16.1 18.8 6.2 6.7 15 15.5 22.7 22.6 2.8 2.6 4.9 5.1 4.5 5.6-.4.4-.2.5.4.1.5-.3 2.7 1 4.8 2.9 2 1.9 9.2 7.5 15.9 12.5 6.7 4.9 12.9 9.6 13.8 10.4.9.7 2.6 1.6 3.8 2 1.2.3 2.1 1.1 2.1 1.6s.6.9 1.4.9c.7 0 2.4 1 3.8 2.3 1.4 1.2 3.2 2.3 3.9 2.5.8.2 2 .9 2.7 1.5 1.7 1.4 15.1 8.6 17.5 9.4.9.3 1.7.9 1.7 1.4 0 .5.5.9 1.2.9.6 0 4.4 1.5 8.2 3.4 3.9 1.8 9.1 4.2 11.6 5.3 2.5 1.1 5.9 2.6 7.5 3.3 1.7.7 3.5 1.4 4 1.6.6.1 4.2 1.4 8 2.9 3.9 1.4 7.9 2.8 9 3.1 1.1.2 3.1.8 4.5 1.3 3.4 1.3 24.5 7.1 28 7.7 2.2.3 6.8 1.3 12 2.4 4.4.9 8.5 1.6 16.5 2.6 2.2.3 5.1.7 6.5 1 15.8 2.5 68.2 2.5 84.2-.1 1.3-.2 4.6-.7 7.3-1 11.9-1.7 16.1-2.5 29.5-5.5 6.9-1.6 16.3-4.1 21-5.5 4.7-1.5 9-2.8 9.5-2.9.6-.2 1.9-.6 3-1 1.1-.5 6.3-2.4 11.5-4.3 9.6-3.6 27.9-11.4 31.4-13.4 1-.6 5.8-3.1 10.5-5.6 4.7-2.5 11-6.1 13.9-7.9 2.9-1.9 5.6-3.4 6.1-3.4s1.1-.4 1.3-.9c.2-.5.9-1.1 1.7-1.3.8-.2 2.2-1 3.2-1.8.9-.8 3.2-2.5 5-3.8 1.9-1.2 7.3-5.1 12.1-8.6 4.7-3.6 9-6.1 9.4-5.8.4.4.4.1 0-.6-.4-.6-.4-1.2.1-1.2 3.3 0 35.7-31.6 49.8-48.5 2.8-3.3 5.5-6.5 6-7.1.6-.6 1.7-2.2 2.5-3.4.8-1.3 2.6-3.7 4-5.4 1.4-1.7 4.4-5.8 6.5-9.1 2.2-3.3 4.3-6.2 4.6-6.5.9-.8 12.7-20.6 16-26.8 1.6-3.1 3.4-6.4 3.9-7.2 1.3-2.2 9-18.8 9-19.4 0-.3 1.1-2.9 2.4-5.8 5.5-12.3 15.4-43.3 18.2-57.3 1.9-9.3 4.4-23.9 4.9-28 .4-2.8.8-6.1 1.1-7.5 3-17.6 2.4-70-1.1-90.5-.2-1.7-.7-4.8-1-7-1.9-13.4-8.1-38.3-13.6-54.7-15.2-45.2-40.8-88.8-72.5-123.7-8.4-9.2-25.7-26-33.4-32.3-3.6-2.9-7.4-6.1-8.5-7.1-1.1-1-7.5-5.7-14.2-10.5-35.3-25.1-74.9-43.7-114.7-53.8-10.7-2.7-27.1-6.2-32.6-6.9-1.9-.3-4.6-.7-6-1-1.3-.2-5.2-.7-8.6-1.1-3.3-.3-7.4-.8-9-1-3.2-.5-54-1.4-54.6-.9z"/></svg>