<svg aria-hidden="true" style="width:0;height:0;position:absolute;overflow:hidden" xmlns="http://www.w3.org/2000/svg"><defs><symbol id="icon-oval" viewBox="0 0 80 32"><path fill="#fff" style="fill:var(--color1,#fff)" d="M16 0h48c8.837 0 16 7.163 16 16s-7.163 16-16 16H16C7.163 32 0 24.837 0 16S7.163 0 16 0z"/></symbol><symbol id="icon-circle" viewBox="0 0 32 32"><path fill="#fff" style="fill:var(--color1,#fff)" d="M32 16c0 8.837-7.163 16-16 16S0 24.837 0 16 7.163 0 16 0s16 7.163 16 16z"/></symbol><symbol id="icon-cross" viewBox="0 0 32 32"><path fill="none" stroke="#86e543" style="stroke:var(--color2,#86e543)" stroke-linejoin="round" stroke-linecap="round" stroke-width="1.143" d="M21.486 10.514 10.515 21.485m-.001-10.971 10.971 10.971M16 31.238c8.416 0 15.238-6.822 15.238-15.238S24.416.762 16 .762.762 7.584.762 16 7.584 31.238 16 31.238z"/></symbol><symbol id="icon-facebook" viewBox="0 0 33 32"><path fill="#fff" style="fill:var(--color1,#fff)" d="M17.149 0c8.837 0 16 7.163 16 16s-7.163 16-16 16-16-7.163-16-16 7.163-16 16-16z"/><path fill="#001414" style="fill:var(--color3,#001414)" d="M21.149 13.181h-2.952V11.52c0-.624.481-.769.821-.769h2.083V8.01l-2.868-.009c-3.185 0-3.909 2.045-3.909 3.353v1.827h-1.841v2.827h1.84v7.993h3.875v-7.993h2.613l.339-2.827z"/></symbol><symbol id="icon-youtube" viewBox="0 0 33 32"><path fill="#fff" style="fill:var(--color1,#fff)" d="M17.149 0c8.837 0 16 7.163 16 16s-7.163 16-16 16-16-7.163-16-16 7.163-16 16-16z"/><path fill="#001414" style="fill:var(--color3,#001414)" d="M23.4 10.987a1.958 1.958 0 0 1 1.415 1.351c.335 1.192.335 3.68.335 3.68s0 2.487-.333 3.679c-.185.657-.727 1.153-1.416 1.329-1.247.32-6.251.32-6.251.32s-5.003 0-6.251-.32c-.689-.176-1.231-.672-1.415-1.329-.333-1.192-.333-3.68-.333-3.68s0-2.487.333-3.679a1.967 1.967 0 0 1 1.4-1.348l.014-.003c1.249-.32 6.255-.32 6.255-.32s5.003 0 6.249.32zm-7.887 2.772v4.516l4.181-2.259-4.181-2.257z"/></symbol><symbol id="icon-instagramm" viewBox="0 0 33 32"><path fill="#fff" style="fill:var(--color1,#fff)" d="M17.149 0c8.837 0 16 7.163 16 16s-7.163 16-16 16-16-7.163-16-16 7.163-16 16-16z"/><path fill="#001414" style="fill:var(--color3,#001414)" d="M25.149 9a1 1 0 1 1-2 0 1 1 0 0 1 2 0zm-8 14a7 7 0 1 1 0-14 7 7 0 1 1 0 14zm0-2.333a4.667 4.667 0 0 0 0-9.334 4.667 4.667 0 0 0 0 9.334z"/></symbol><symbol id="icon-burger" viewBox="0 0 48 32"><path fill="#86e543" style="fill:var(--color1,#86e543)" d="M45.467 13.333H2.534c-1.399 0-2.533.681-2.533 1.52v.16c0 .839 1.134 1.52 2.533 1.52h42.933c1.399 0 2.533-.681 2.533-1.52v-.16c0-.839-1.134-1.52-2.533-1.52zm0 13.334H2.534c-1.399 0-2.533.681-2.533 1.52v.16c0 .839 1.134 1.52 2.533 1.52h42.933c1.399 0 2.533-.681 2.533-1.52v-.16c0-.839-1.134-1.52-2.533-1.52zm0-26.667H2.534C1.135 0 .001.681.001 1.52v.16c0 .839 1.134 1.52 2.533 1.52h42.933C46.866 3.2 48 2.519 48 1.68v-.16C48 .681 46.866 0 45.467 0z"/></symbol><symbol id="icon-cross-burger" viewBox="0 0 31 32"><path fill="none" stroke="#86e543" style="stroke:var(--color2,#86e543)" stroke-linecap="round" stroke-width="3.556" d="M29.037 30.222 1.777 1.778m27.26 0L1.777 30.222"/></symbol><symbol id="icon-like-down" viewBox="0 0 34 32"><path fill="none" stroke="#86e543" style="stroke:var(--color2,#86e543)" stroke-linejoin="round" stroke-linecap="round" stroke-width="3.048" d="M1.661 18.159a1.524 1.524 0 0 0 1.519 1.65h2.916c.842 0 1.524-.682 1.524-1.524v0V3.047c0-.842-.682-1.524-1.524-1.524v0H4.45c-.797 0-1.451.612-1.518 1.392v.006L1.663 18.159h-.001zM12.19 18c0 .637.396 1.207.971 1.478 1.256.593 3.397 1.784 4.362 3.394 1.244 2.075 1.478 5.825 1.516 6.683.006.12.003.241.019.36.206 1.488 3.078-.25 4.179-2.088.598-.997.674-2.306.612-3.33-.069-1.093-.389-2.151-.703-3.201l-.67-2.238h8.272a1.525 1.525 0 0 0 1.464-1.949l.003.011-4.091-14.488a1.527 1.527 0 0 0-1.466-1.109H13.715c-.842 0-1.524.682-1.524 1.524v14.952z"/></symbol><symbol id="icon-like-up" viewBox="0 0 34 32"><path stroke-linejoin="round" stroke-linecap="round" stroke-width="3.048" d="M1.661 13.841a1.524 1.524 0 0 1 1.519-1.65h2.916c.842 0 1.524.682 1.524 1.524v15.238c0 .842-.682 1.524-1.524 1.524H4.45a1.524 1.524 0 0 1-1.518-1.392v-.006L1.663 13.841h-.001zM12.19 14c0-.637.396-1.207.971-1.478 1.256-.593 3.397-1.784 4.362-3.394 1.244-2.075 1.478-5.825 1.516-6.683.006-.12.003-.241.019-.36.206-1.488 3.078.25 4.179 2.088.598.997.674 2.306.612 3.33-.069 1.093-.389 2.151-.703 3.201l-.67 2.238h8.272a1.525 1.525 0 0 1 1.464 1.949l.003-.011-4.091 14.488a1.527 1.527 0 0 1-1.466 1.109H13.715a1.524 1.524 0 0 1-1.524-1.524V14.001z"/></symbol></defs></svg>