<?xml version="1.0" standalone="no"?>
<!DOCTYPE svg PUBLIC "-//W3C//DTD SVG 20010904//EN"
 "http://www.w3.org/TR/2001/REC-SVG-20010904/DTD/svg10.dtd">
<svg version="1.0" xmlns="http://www.w3.org/2000/svg"
 width="700.000000pt" height="700.000000pt" viewBox="0 0 700.000000 700.000000"
 preserveAspectRatio="xMidYMid meet">
<metadata>
Created by potrace 1.14, written by Peter Selinger 2001-2017
</metadata>
<g transform="translate(0.000000,700.000000) scale(0.100000,-0.100000)"
fill="#000000" stroke="none">
<path d="M3278 6995 c-1 -1 -42 -5 -89 -9 -47 -4 -95 -8 -105 -10 -10 -2 -41
-7 -69 -10 -27 -4 -76 -11 -107 -17 -32 -5 -70 -12 -85 -15 -234 -41 -591
-160 -838 -280 -180 -87 -448 -247 -555 -331 -8 -6 -51 -40 -95 -74 -339 -263
-651 -625 -875 -1014 -47 -81 -170 -327 -170 -339 0 -3 -11 -29 -24 -58 -51
-114 -126 -340 -162 -488 -10 -41 -55 -259 -59 -285 -13 -87 -16 -113 -20
-145 -27 -231 -27 -670 0 -831 2 -13 6 -46 9 -74 9 -78 23 -156 51 -285 31
-142 109 -391 174 -555 64 -159 250 -515 299 -571 5 -5 15 -21 22 -35 14 -26
136 -193 179 -245 80 -98 111 -134 161 -188 62 -67 150 -155 227 -226 28 -26
49 -51 45 -56 -4 -4 -2 -5 4 -1 5 3 27 -10 48 -29 20 -19 92 -75 159 -125 67
-49 129 -96 138 -104 9 -7 26 -16 38 -20 12 -3 21 -11 21 -16 0 -5 6 -9 14 -9
7 0 24 -10 38 -23 14 -12 32 -23 39 -25 8 -2 20 -9 27 -15 17 -14 151 -86 175
-94 9 -3 17 -9 17 -14 0 -5 5 -9 12 -9 6 0 44 -15 82 -34 39 -18 91 -42 116
-53 25 -11 59 -26 75 -33 17 -7 35 -14 40 -16 6 -1 42 -14 80 -29 39 -14 79
-28 90 -31 11 -2 31 -8 45 -13 34 -13 245 -71 280 -77 22 -3 68 -13 120 -24
44 -9 85 -16 165 -26 22 -3 51 -7 65 -10 158 -25 682 -25 842 1 13 2 46 7 73
10 119 17 161 25 295 55 69 16 163 41 210 55 47 15 90 28 95 29 6 2 19 6 30
10 11 5 63 24 115 43 96 36 279 114 314 134 10 6 58 31 105 56 47 25 110 61
139 79 29 19 56 34 61 34 5 0 11 4 13 9 2 5 9 11 17 13 8 2 22 10 32 18 9 8
32 25 50 38 19 12 73 51 121 86 47 36 90 61 94 58 4 -4 4 -1 0 6 -4 6 -4 12 1
12 33 0 357 316 498 485 28 33 55 65 60 71 6 6 17 22 25 34 8 13 26 37 40 54
14 17 44 58 65 91 22 33 43 62 46 65 9 8 127 206 160 268 16 31 34 64 39 72
13 22 90 188 90 194 0 3 11 29 24 58 55 123 154 433 182 573 19 93 44 239 49
280 4 28 8 61 11 75 30 176 24 700 -11 905 -2 17 -7 48 -10 70 -19 134 -81
383 -136 547 -152 452 -408 888 -725 1237 -84 92 -257 260 -334 323 -36 29
-74 61 -85 71 -11 10 -75 57 -142 105 -353 251 -749 437 -1147 538 -107 27
-271 62 -326 69 -19 3 -46 7 -60 10 -13 2 -52 7 -86 11 -33 3 -74 8 -90 10
-32 5 -540 14 -546 9z"/>
</g>
</svg>
